# xmcd
#
# Track frame offsets:
#	183
#	11885
#	24758
#	37415
#	52510
#	62648
#	75793
#	92200
#	105415
#	115895
#	132473
#	144943
#	160153
#	172570
#
# Disc length: 2538 seconds
#
# Revision: 1
# Processed by: cddbd v1.5.2PL0 Copyright (c) Steve Scherf et al.
# Submitted via: audiograbber 1.83.01
#
DISCID=9e09e80e
DTITLE=Tommy Gormley - 6 Days On The Road
DYEAR=1900
DGENRE=
TTITLE0=6 Days On The Road
TTITLE1=My Donegal Lady
TTITLE2=Silver Wings
TTITLE3=Slaney Valley
TTITLE4=Billy Bayou
TTITLE5=Whiskey, Rain And Me
TTITLE6=Fairytale Ending
TTITLE7=Nothing I Can Do About It Now
TTITLE8=Just Between You And Me
TTITLE9=Rose Of Mooncoin
TTITLE10=Where The Grass Grows The Greenest
TTITLE11=Tell 'Em I've Gone Crazy
TTITLE12=Enter My Heart
TTITLE13=Where Do You Go To My Lovely
EXTD=
EXTT0=
EXTT1=
EXTT2=
EXTT3=
EXTT4=
EXTT5=
EXTT6=
EXTT7=
EXTT8=
EXTT9=
EXTT10=
EXTT11=
EXTT12=
EXTT13=
PLAYORDER=
